#!OML:ASF X:\für Bonn\!DataBase\2005_08_10_Bjorn_Final\c3d\bjorn.ASF
:FULLY-SPECIFIED
:DEGREES
271
root 16.3695 19.0315 1.68826 1091.21 -74.4209 -350.418
lowerback 38.3302 4.48321 4.55257
upperback 23.4019 3.83775 -0.470385
thorax 7.53505 1.61703 -3.97054
lowerneck 2.57727 -6.31415 12.731
upperneck -17.3389 -7.9922 -0.389776
head -6.2706 -4.856 -1.6399
rclavicle 2.54444e-014 2.66371e-014
rhumerus 21.1919 15.2152 -51.0913
rradius 26.1562
rwrist -13.908
rhand -2.82561 1.11038
rfingers 7.12502
rthumb 22.8813 -27.5521
lclavicle 2.54444e-014 2.66371e-014
lhumerus -7.28356 -20.703 85.2945
lradius 43.9313
lwrist -1.38241
lhand -25.8321 -12.3063
lfingers 7.12502
lthumb 0.707956 17.6722
rfemur -41.987 -7.56032 11.4306
rtibia 39.058
rfoot -12.7177 7.66939
rtoes -11.14
lfemur -41.7777 -4.38794 -20.2382
ltibia 40.5571
lfoot -12.8875 1.66599
ltoes -6.75221
272
root 16.3378 19.0511 1.72702 1090.97 -74.5969 -351.076
lowerback 37.7149 4.53624 4.42574
upperback 23.4129 3.86683 -0.508406
thorax 7.73364 1.62146 -3.94188
lowerneck 2.32087 -6.26917 12.5798
upperneck -17.0188 -7.94665 -0.186487
head -6.10653 -4.82469 -1.57081
rclavicle 5.08889e-014 -9.93923e-016
rhumerus 19.957 15.6458 -51.5332
rradius 26.2289
rwrist -14.5897
rhand -1.94682 1.00823
rfingers 7.12502
rthumb 23.7244 -27.5474
lclavicle 5.08889e-014 -9.93923e-016
lhumerus -7.14439 -20.2781 85.1681
lradius 43.5401
lwrist -1.69283
lhand -25.7741 -12.093
lfingers 7.12502
lthumb 0.763938 17.8854
rfemur -40.5992 -7.28538 11.3987
rtibia 38.5218
rfoot -12.7264 7.72151
rtoes -10.9615
lfemur -40.4159 -4.16565 -20.2644
ltibia 40.1804
lfoot -13.0126 1.5812
ltoes -6.36229
273
root 16.3045 19.0683 1.76638 1090.95 -74.7665 -351.906
lowerback 37.0126 4.57139 4.3138
upperback 23.4042 3.88603 -0.539044
thorax 7.94141 1.62322 -3.90795
lowerneck 1.99332 -6.19686 12.3556
upperneck -16.5808 -7.87327 0.0542439
head -5.88676 -4.77198 -1.48586
rclavicle -2.06736e-014 5.92378e-014
rhumerus 18.7166 16.1823 -51.9738
rradius 26.3316
rwrist -15.2322
rhand -1.12343 0.959834
rfingers 7.12502
rthumb 24.5139 -27.4912
lclavicle -2.06736e-014 5.92378e-014
lhumerus -7.1066 -19.758 85.0599
lradius 43.2
lwrist -2.08634
lhand -25.7125 -11.9543
lfingers 7.12502
lthumb 0.823453 18.0239
rfemur -39.2774 -6.99954 11.4213
rtibia 38.0135
rfoot -12.765 7.73747
rtoes -10.9699
lfemur -39.124 -3.89037 -20.2532
ltibia 39.8322
lfoot -13.1451 1.48375
ltoes -6.39694
274
root 16.2687 19.0824 1.80556 1090.93 -74.9442 -352.781
lowerback 36.3178 4.61687 4.20864
upperback 23.4098 3.91828 -0.567178
thorax 8.17097 1.63199 -3.87716
lowerneck 1.55535 -6.10579 12.1054
upperneck -16.0382 -7.78316 0.357804
head -5.61216 -4.70867 -1.38442
rclavicle 4.92986e-014 -4.21423e-014
rhumerus 17.44 16.7679 -52.4231
rradius 26.4885
rwrist -15.8939
rhand -0.374591 1.01392
rfingers 7.12502
rthumb 25.2315 -27.3379
lclavicle 4.92986e-014 -4.21423e-014
lhumerus -7.09516 -19.2198 84.9367
lradius 42.8861
lwrist -2.56621
lhand -25.6569 -11.804
lfingers 7.12502
lthumb 0.877111 18.1739
rfemur -37.9116 -6.70806 11.4613
rtibia 37.5332
rfoot -12.824 7.77076
rtoes -11.0384
lfemur -37.7898 -3.58176 -20.2365
ltibia 39.5075
lfoot -13.2956 1.34823
ltoes -6.37734
275
root 16.2308 19.096 1.84372 1090.93 -75.0854 -353.661
lowerback 35.6024 4.64268 4.117
upperback 23.3966 3.93805 -0.605799
thorax 8.39178 1.6384 -3.86024
lowerneck 1.08238 -6.00821 11.8992
upperneck -15.4406 -7.68961 0.647815
head -5.31865 -4.64149 -1.29653
rclavicle 3.02153e-014 2.92213e-014
rhumerus 16.1842 17.3338 -52.9811
rradius 26.6245
rwrist -16.4613
rhand 0.279537 0.939982
rfingers 7.12502
rthumb 25.8581 -27.322
lclavicle 3.02153e-014 2.92213e-014
lhumerus -7.12017 -18.6115 84.8071
lradius 42.6076
lwrist -3.16216
lhand -25.5592 -11.694
lfingers 7.12502
lthumb 0.971512 18.2835
rfemur -36.5613 -6.42788 11.5024
rtibia 37.075
rfoot -12.9031 7.79023
rtoes -10.901
lfemur -36.4761 -3.29374 -20.1966
ltibia 39.206
lfoot -13.4482 1.1892
ltoes -6.28425
276
root 16.1897 19.1073 1.88157 1090.96 -75.2112 -354.563
lowerback 34.87 4.65935 4.0273
upperback 23.3559 3.95543 -0.640997
thorax 8.59152 1.64424 -3.83891
lowerneck 0.640169 -5.92552 11.6883
upperneck -14.8031 -7.61484 0.927464
head -5.02091 -4.57876 -1.20973
rclavicle 1.59028e-014 -7.63333e-014
rhumerus 14.8593 17.8949 -53.6344
rradius 26.8462
rwrist -17.0366
rhand 0.828131 0.714092
rfingers 7.12502
rthumb 26.3833 -27.4703
lclavicle 1.59028e-014 -7.63333e-014
lhumerus -7.24189 -17.9351 84.701
lradius 42.3954
lwrist -3.83188
lhand -25.4189 -11.621
lfingers 7.12502
lthumb 1.10697 18.3559
rfemur -35.2188 -6.18908 11.5701
rtibia 36.6318
rfoot -13.0052 7.81403
rtoes -10.7669
lfemur -35.1778 -2.99328 -20.1516
ltibia 38.9251
lfoot -13.6285 1.03203
ltoes -6.28117
277
root 16.1481 19.1152 1.92033 1090.99 -75.334 -355.473
lowerback 34.1301 4.65879 3.96793
upperback 23.3215 3.95998 -0.694981
thorax 8.81039 1.6499 -3.84961
lowerneck 0.199911 -5.85487 11.5438
upperneck -14.211 -7.56203 1.15898
head -4.74536 -4.52917 -1.14573
rclavicle 3.49861e-014 -3.81667e-014
rhumerus 13.5184 18.0695 -54.5217
rradius 26.9745
rwrist -17.2932
rhand 1.46774 0.639102
rfingers 7.12502
rthumb 26.9955 -27.452
lclavicle 3.49861e-014 -3.81667e-014
lhumerus -7.32864 -17.2515 84.547
lradius 42.1702
lwrist -4.59477
lhand -25.2699 -11.5765
lfingers 7.12502
lthumb 1.25088 18.3996
rfemur -33.876 -5.91261 11.6212
rtibia 36.2091
rfoot -13.1047 7.84527
rtoes -10.6277
lfemur -33.8769 -2.71923 -20.0874
ltibia 38.6606
lfoot -13.8293 0.840379
ltoes -6.02099
278
root 16.1053 19.1226 1.95792 1091.08 -75.4511 -356.437
lowerback 33.4155 4.65795 3.89922
upperback 23.2413 3.97147 -0.740711
thorax 8.97142 1.65694 -3.84823
lowerneck -0.0772979 -5.82208 11.4492
upperneck -13.7066 -7.54375 1.32177
head -4.53172 -4.49789 -1.10139
rclavicle 2.70347e-014 1.21259e-014
rhumerus 12.0477 18.1667 -55.4876
rradius 27.1859
rwrist -17.546
rhand 2.08856 0.58063
rfingers 7.12502
rthumb 27.5893 -27.417
lclavicle 2.70347e-014 1.21259e-014
lhumerus -7.44555 -16.5061 84.4028
lradius 41.9052
lwrist -5.4262
lhand -25.0872 -11.6768
lfingers 7.12502
lthumb 1.42738 18.2981
rfemur -32.5354 -5.55724 11.6794
rtibia 35.7977
rfoot -13.2635 7.75771
rtoes -10.579
lfemur -32.5938 -2.41544 -20.0115
ltibia 38.4164
lfoot -14.0152 0.672337
ltoes -6.10689
279
root 16.0612 19.1276 1.99567 1091.25 -75.5784 -357.46
lowerback 32.6956 4.64245 3.844
upperback 23.1426 3.97239 -0.803224
thorax 9.11975 1.66241 -3.86893
lowerneck -0.264805 -5.7823 11.3656
upperneck -13.2443 -7.50119 1.49849
head -4.34547 -4.45685 -1.05204
rclavicle 2.22639e-014 1.86858e-014
rhumerus 10.5462 18.2191 -56.4899
rradius 27.4309
rwrist -17.7731
rhand 2.72883 0.585137
rfingers 7.12502
rthumb 28.2014 -27.3132
lclavicle 2.22639e-014 1.86858e-014
lhumerus -7.59175 -15.6843 84.246
lradius 41.656
lwrist -6.45034
lhand -24.9405 -11.7757
lfingers 7.12502
lthumb 1.56905 18.1983
rfemur -31.2295 -5.20231 11.7613
rtibia 35.4103
rfoot -13.4275 7.68741
rtoes -10.4261
lfemur -31.3258 -2.13496 -19.9043
ltibia 38.1827
lfoot -14.2345 0.536259
ltoes -6.20748
280
root 16.0155 19.1315 2.03321 1091.41 -75.7009 -358.448
lowerback 31.9793 4.6239 3.77753
upperback 23.0009 3.97619 -0.860618
thorax 9.22064 1.6682 -3.87835
lowerneck -0.348393 -5.76293 11.2778
upperneck -12.7691 -7.47576 1.63905
head -4.17477 -4.42026 -1.0091
rclavicle -7.31528e-014 7.13637e-014
rhumerus 8.9473 18.2803 -57.479
rradius 27.7686
rwrist -18.0196
rhand 3.35516 0.583978
rfingers 7.12502
rthumb 28.7999 -27.214
lclavicle -7.31528e-014 7.13637e-014
lhumerus -7.81259 -14.8885 84.101
lradius 41.4634
lwrist -7.49808
lhand -24.8274 -11.8671
lfingers 7.12502
lthumb 1.67825 18.1061
rfemur -29.9602 -4.88688 11.841
rtibia 35.033
rfoot -13.5527 7.67204
rtoes -10.1487
lfemur -30.0979 -1.86817 -19.7942
ltibia 37.9622
lfoot -14.4391 0.367698
ltoes -5.90224
